<?xml version="1.0" encoding="UTF-8"?>
<svg width="40px" height="40px" viewBox="0 0 40 40" version="1.1" xmlns="http://www.w3.org/2000/svg" xmlns:xlink="http://www.w3.org/1999/xlink">
    <title>loading (1)备份 2</title>
    <g id="VDI1.2终端UI" stroke="none" stroke-width="1" fill="none" fill-rule="evenodd">
        <g id="7.问题诊断_检查用户1" transform="translate(-663.000000, -452.000000)" fill-rule="nonzero">
            <g id="编组-12备份" transform="translate(483.000000, 64.000000)">
                <g id="loading-(1)备份-2" transform="translate(180.000000, 388.000000)">
                    <path d="M35.6421104,8.18920138 C36.2335826,9.00585091 36.0762949,10.145322 35.2858624,10.7700406 C34.9031556,11.0608384 34.4203873,11.1859982 33.9451369,11.1176295 C33.4698865,11.0492608 33.0416453,10.7930447 32.7558421,10.4060761 C29.7638191,6.18543259 24.9223902,3.6759002 19.7593882,3.66942398 C15.4318365,3.70610189 11.296428,5.46737341 8.26456011,8.56507415 C5.23269224,11.6627749 3.55322203,15.8426443 3.59628577,20.1834862 C3.60244667,20.6613971 3.41816751,21.1220034 3.08435539,21.4630576 C2.75054328,21.8041117 2.29481836,21.9973945 1.81834446,22 C0.817870578,21.9981967 0.00625584908,21.1870333 0.000820104609,20.1834862 C-0.0980060956,9.13751557 8.74741358,0.101870639 19.7593882,0 C26.0571901,0.0140891813 31.9653104,3.06034198 35.6421104,8.18920138 L35.6421104,8.18920138 Z" id="路径" fill="#3DA4F1" opacity="0.38"></path>
                    <path d="M4.35825072,31.8282874 C3.76618174,31.0104078 3.92362813,29.8692204 4.71485811,29.2435608 C5.09795101,28.9523249 5.58120638,28.8269766 6.05693629,28.8954483 C6.5326662,28.96392 6.96133941,29.220522 7.247431,29.6080735 C10.2552793,33.8219735 15.0953226,36.3313973 20.260299,36.3548727 C29.2857687,36.2601835 36.5276909,28.8439875 36.4397086,19.7861124 C36.4397086,18.7996698 37.2365232,18 38.2194437,18 C39.2023643,18 39.9991788,18.7996698 39.9991788,19.7861124 C40.0981102,30.847439 31.2457684,39.8961583 20.2239779,40 C13.9367033,39.9827315 8.03797788,36.9445671 4.35825072,31.8282874 L4.35825072,31.8282874 Z" id="路径" fill="#1E88E5"></path>
                </g>
            </g>
        </g>
    </g>
</svg>