<?xml version="1.0" encoding="UTF-8"?>
<svg width="44px" height="31px" viewBox="0 0 44 31" version="1.1" xmlns="http://www.w3.org/2000/svg" xmlns:xlink="http://www.w3.org/1999/xlink">
    <title>箭头</title>
    <defs>
        <linearGradient x1="50%" y1="0%" x2="50%" y2="99.5688805%" id="linearGradient-1">
            <stop stop-color="#2491FF" offset="0%"></stop>
            <stop stop-color="#4AC4FF" stop-opacity="0.454046076" offset="59.2230523%"></stop>
            <stop stop-color="#4AC4FF" stop-opacity="0.19180746" offset="100%"></stop>
        </linearGradient>
        <linearGradient x1="54.1283508%" y1="5.4611817%" x2="54.1283508%" y2="100%" id="linearGradient-2">
            <stop stop-color="#4AEFFF" offset="0%"></stop>
            <stop stop-color="#24DAFF" stop-opacity="0.259869769" offset="65.0263433%"></stop>
            <stop stop-color="#24DAFF" stop-opacity="0.0865427297" offset="100%"></stop>
        </linearGradient>
        <linearGradient x1="50%" y1="0.919416766%" x2="50%" y2="98.8125034%" id="linearGradient-3">
            <stop stop-color="#B8DCFF" offset="0%"></stop>
            <stop stop-color="#D1E9FF" stop-opacity="0.240729485" offset="61.7918215%"></stop>
            <stop stop-color="#DDF0FF" stop-opacity="0.0517185451" offset="100%"></stop>
        </linearGradient>
    </defs>
    <g id="VDI1.7终端改版深色（PC端）" stroke="none" stroke-width="1" fill="none" fill-rule="evenodd">
        <g id="11-升级" transform="translate(-1067.000000, -923.000000)" fill-rule="nonzero">
            <g id="箭头" transform="translate(1089.000000, 938.500000) rotate(90.000000) translate(-1089.000000, -938.500000) translate(1073.500000, 916.500000)">
                <path d="M14.0672046,0.589317936 L0.598927759,14.1131962 C-0.679566605,15.3969686 0.224196652,17.5771683 2.03172317,17.5771683 L7.93924885,17.5771683 L7.93924885,20.9636714 C7.93924885,22.0814387 8.84301211,23 9.96720543,23 L21.0327946,23 C22.1459664,23 23.0607512,22.0925057 23.0607512,20.9636714 L23.0607512,17.5771683 L28.9682768,17.5771683 C30.7758033,17.5771683 31.6795666,15.3859016 30.4010722,14.1131962 L16.9327954,0.589317936 C16.1392472,-0.196439312 14.8607528,-0.196439312 14.0672046,0.589317936 Z" id="路径" fill="url(#linearGradient-1)"></path>
                <path d="M14.0672046,10.5976901 L0.598927759,24.112127 C-0.679566605,25.3960539 0.224196652,27.5765159 2.03172317,27.5765159 L7.93924885,27.5765159 L7.93924885,30.9634264 C7.93924885,32.0813282 8.84301211,33 9.96720543,33 L21.0327946,33 C22.1459664,33 23.0607512,32.0923965 23.0607512,30.9634264 L23.0607512,27.5765159 L28.9682768,27.5765159 C30.7758033,27.5765159 31.6795666,25.3849856 30.4010722,24.112127 L16.9327954,10.5976901 C16.1392472,9.80076997 14.8607528,9.80076997 14.0672046,10.5976901 Z" id="路径" fill="url(#linearGradient-2)"></path>
                <path d="M14.0672046,21.5893179 L0.598927759,35.1131962 C-0.679566605,36.3969686 0.224196652,38.5771683 2.03172317,38.5771683 L7.93924885,38.5771683 L7.93924885,41.9636714 C7.93924885,43.0814387 8.84301211,44 9.96720543,44 L21.0327946,44 C22.1459664,44 23.0607512,43.0925057 23.0607512,41.9636714 L23.0607512,38.5771683 L28.9682768,38.5771683 C30.7758033,38.5771683 31.6795666,36.3859016 30.4010722,35.1131962 L16.9327954,21.5893179 C16.1392472,20.8035607 14.8607528,20.8035607 14.0672046,21.5893179 Z" id="路径" fill="url(#linearGradient-3)"></path>
            </g>
        </g>
    </g>
</svg>