<?xml version="1.0" encoding="UTF-8"?>
<svg width="48px" height="48px" viewBox="0 0 48 48" version="1.1" xmlns="http://www.w3.org/2000/svg" xmlns:xlink="http://www.w3.org/1999/xlink">
    <title>loading</title>
    <g id="VDI1.6终端改版（PC端）" stroke="none" stroke-width="1" fill="none" fill-rule="evenodd">
        <g id="11正在安装" transform="translate(-659.000000, -337.000000)" fill-rule="nonzero">
            <g id="编组-4" transform="translate(443.000000, 249.000000)">
                <g id="loading" transform="translate(216.000000, 88.000000)">
                    <rect id="矩形" fill="#000000" opacity="0" x="0" y="0" width="48" height="48"></rect>
                    <path d="M15.6512621,40.9497556 C22.8485829,44.5820272 31.6559509,43.2390051 37.4480751,37.4454596 C43.1800725,31.7120557 44.5546929,23.0248145 41.0626761,15.8675005 L40.9554266,15.6510841 C40.329828,14.4094635 40.8289738,12.8956207 42.0703364,12.2699152 C43.3116524,11.644163 44.8251238,12.1434314 45.4506758,13.3850986 C50.0480474,22.5096949 48.3450133,33.6665638 41.0075365,41.0058411 C33.6672631,48.3479156 22.5075845,50.0496426 13.3836885,45.4451287 C12.1426522,44.8187705 11.6442054,43.3047412 12.2703634,42.0633538 C12.896568,40.822013 14.4102258,40.323444 15.6512621,40.9497556 L15.6512621,40.9497556 Z" id="路径" fill="#2491FF"></path>
                    <path d="M6.99295778,6.99110678 C14.3329356,-0.346918316 25.4918088,-2.04842452 34.6158675,2.55228756 C35.8570889,3.17814282 36.3558056,4.69147305 35.7297878,5.93237214 C35.1099695,7.16087527 33.6202055,7.66183912 32.3861159,7.06445721 L32.3488252,7.04600307 C25.1512513,3.41669484 16.3445831,4.75955753 10.5527293,10.5499539 C4.81639204,16.2848015 3.44400055,24.9758483 6.94443321,32.1322216 L7.05201694,32.348638 C7.67864077,33.5892108 7.18066992,35.102774 5.9398214,35.7292817 C4.69887969,36.3557895 3.18492331,35.8579013 2.55825286,34.617375 C-2.05013355,25.4940546 -0.35004993,14.3322075 6.99295778,6.99110678 Z" id="路径" fill="#2491FF" opacity="0.495135356"></path>
                </g>
            </g>
        </g>
    </g>
</svg>