<?xml version="1.0" encoding="UTF-8"?>
<svg width="50px" height="50px" viewBox="0 0 50 50" version="1.1" xmlns="http://www.w3.org/2000/svg" xmlns:xlink="http://www.w3.org/1999/xlink">
    <g id="VDI1.6终端改版2" stroke="none" stroke-width="1" fill="none" fill-rule="evenodd">
        <g id="2桌面" transform="translate(-576.000000, -341.000000)" fill="#F5F8FA" stroke="#DFE3EB">
            <g id="编组-10" transform="translate(494.000000, 315.000000)">
                <g id="编组-13备份" transform="translate(83.000000, 27.000000)">
                    <path d="M9.6,2.61888 C9.6,2.61888 16.5408,0 23.5632,0 C30.93312,0 38.4,2.61888 38.4,2.61888 C42.23328,4.4592 43.43328,5.62272 45.38208,9.6 C45.38208,9.6 48,15.71808 48,23.04 C48,30.11424 45.38208,38.4 45.38208,38.4 C43.54848,41.5872 42.37728,42.78048 38.4,45.38208 C38.4,45.38208 30.28608,48 22.69056,48 C15.93504,48 9.6,45.38208 9.6,45.38208 C5.25696,43.13856 4.96128,42.7584 2.61792,38.4 C2.61792,38.4 0,30.99168 0,23.57952 C0,16.60512 2.61792,9.6 2.61792,9.6 C4.09344,6.39072 5.736,4.35264 9.6,2.61888 Z" id="路径备份-20"></path>
                </g>
            </g>
        </g>
    </g>
</svg>