<?xml version="1.0" encoding="UTF-8" standalone="no"?>
<svg
   viewBox="0 0 720 190"
   role="img"
   aria-labelledby="title desc"
   version="1.1"
   id="svg15"
   xmlns="http://www.w3.org/2000/svg"
   xmlns:svg="http://www.w3.org/2000/svg">
  <title
     id="title">Viridian Desk logo dark</title>
  <desc
     id="desc">Transparent SVG logo with green V-shaped icon, Viridian Desk wordmark dark, and secure workspace access tagline.</desc>
  <defs
     id="defs11">
    <linearGradient
       id="vd-left"
       x1="8"
       y1="28"
       x2="106"
       y2="154"
       gradientUnits="userSpaceOnUse">
      <stop
         offset="0"
         stop-color="#57BE90"
         id="stop1" />
      <stop
         offset="0.48"
         stop-color="#347C61"
         id="stop2" />
      <stop
         offset="1"
         stop-color="#1E4E40"
         id="stop3" />
    </linearGradient>
    <linearGradient
       id="vd-front"
       x1="31"
       y1="71"
       x2="105"
       y2="144"
       gradientUnits="userSpaceOnUse">
      <stop
         offset="0"
         stop-color="#32765F"
         id="stop4" />
      <stop
         offset="0.54"
         stop-color="#285D4B"
         id="stop5" />
      <stop
         offset="1"
         stop-color="#1A4338"
         id="stop6" />
    </linearGradient>
    <linearGradient
       id="vd-right"
       x1="102"
       y1="28"
       x2="129"
       y2="93"
       gradientUnits="userSpaceOnUse">
      <stop
         offset="0"
         stop-color="#65C79A"
         id="stop7" />
      <stop
         offset="0.58"
         stop-color="#469D74"
         id="stop8" />
      <stop
         offset="1"
         stop-color="#2E7758"
         id="stop9" />
    </linearGradient>
    <linearGradient
       id="vd-edge"
       x1="33"
       y1="68"
       x2="105"
       y2="118"
       gradientUnits="userSpaceOnUse">
      <stop
         offset="0"
         stop-color="#0F312B"
         stop-opacity="0.38"
         id="stop10" />
      <stop
         offset="1"
         stop-color="#0F312B"
         stop-opacity="0"
         id="stop11" />
    </linearGradient>
  </defs>
  <g
     id="mark">
    <path
       d="M8 28H52L109 113L83 157Z"
       fill="url(#vd-left)"
       id="path11" />
    <path
       d="M31 71H73L109 113L83 157Z"
       fill="url(#vd-front)"
       id="path12" />
    <path
       d="M31 71H73L109 113L104 121L68 77H35Z"
       fill="url(#vd-edge)"
       opacity="0.5"
       id="path13" />
    <path
       d="M108 28H153L113 95L91 59Z"
       fill="url(#vd-right)"
       id="path14" />
  </g>
  <g
     id="wordmark"
     transform="translate(0 0)">
    <path
       d="m 216.80664,83 h 9.60938 l 11.48437,-30.9375 h -8.96484 l -5.03907,15.292969 c -0.73242,2.43164 -1.46484,4.892578 -2.16796,7.324218 -0.70313,-2.43164 -1.43555,-4.892578 -2.22657,-7.324218 L 214.4043,52.0625 h -9.05274 z m 22.86289,0 h 8.64258 V 52.0625 h -8.64258 z m 4.30664,-34.833984 c 2.8418,0 4.92188,-1.962891 4.92188,-4.59961 0,-2.636719 -2.08008,-4.599609 -4.92188,-4.599609 -2.8418,0 -4.92187,1.96289 -4.92187,4.599609 0,2.636719 2.08007,4.59961 4.92187,4.59961 z M 252.80586,83 h 8.64258 V 66.242187 c 0,-4.658203 2.60742,-7.11914 6.15234,-7.11914 1.46484,0 3.07617,0.117187 3.7207,0.146484 v -7.353515 c -0.70312,-0.0293 -1.55273,-0.05859 -2.54882,-0.05859 -4.07227,0 -6.41602,1.757812 -7.5586,5.478515 h -0.0879 V 52.0625 h -8.32031 z m 21.10507,0 h 8.64258 V 52.0625 h -8.64258 z m 4.30665,-34.833984 c 2.84179,0 4.92187,-1.962891 4.92187,-4.59961 0,-2.636719 -2.08008,-4.599609 -4.92187,-4.599609 -2.8418,0 -4.92188,1.96289 -4.92188,4.599609 0,2.636719 2.08008,4.59961 4.92188,4.59961 z m 20.8707,35.478515 c 4.07227,0 7.38281,-1.787109 9.16992,-5.390625 h 0.0293 V 83 h 8.49609 V 39.347656 h -8.61328 v 16.992188 h -0.0293 C 306.14883,53 303.04336,51.417969 299.02969,51.417969 c -7.91016,0 -13.33008,6.591797 -13.33008,16.083984 0,9.697266 5.30273,16.142578 13.38867,16.142578 z m 2.22656,-7.03125 c -4.18945,0 -6.91406,-3.310547 -6.91406,-9.111328 0,-5.800781 2.72461,-9.111328 6.91406,-9.111328 4.36524,0 7.26563,3.603516 7.26563,9.111328 0,5.537109 -2.90039,9.111328 -7.26563,9.111328 z M 321.30664,83 h 8.64258 V 52.0625 h -8.64258 z m 4.30664,-34.833984 c 2.8418,0 4.92188,-1.962891 4.92188,-4.59961 0,-2.636719 -2.08008,-4.599609 -4.92188,-4.599609 -2.8418,0 -4.92187,1.96289 -4.92187,4.599609 0,2.636719 2.08007,4.59961 4.92187,4.59961 z m 18.29258,35.361328 c 4.74609,0 7.41211,-1.875 9.05274,-4.892578 h 0.11718 V 83 h 8.4375 V 62.023437 c 0,-6.621093 -4.86328,-10.605468 -13.33008,-10.605468 -8.49609,0 -13.53515,4.042968 -13.91601,10.429687 h 8.11523 c 0.20508,-2.373047 2.31446,-4.013672 5.53711,-4.013672 3.16407,0 5.06836,1.582032 5.06836,3.867188 v 0.205078 c 0,1.992187 -1.99219,2.255859 -7.64648,2.8125 -6.44531,0.585937 -12.07031,2.578125 -12.07031,9.550781 0,6.181641 4.45312,9.257813 10.63476,9.257813 z m 2.40234,-6.00586 c -2.90039,0 -4.77539,-1.289062 -4.77539,-3.486328 0,-2.460937 2.34375,-3.603515 5.30274,-4.042969 2.7832,-0.439453 5.21484,-0.849609 6.21094,-1.40625 v 3.105469 c 0,3.339844 -2.57813,5.830078 -6.73829,5.830078 z m 28.34141,-11.71875 c 0,-4.804687 2.49024,-6.943359 6.06446,-6.943359 3.60351,0 5.68359,2.197266 5.68359,6.357422 V 83 h 8.61328 V 63.634766 c 0,-7.822266 -4.24805,-12.216797 -10.83984,-12.216797 -4.45313,0 -7.58789,1.992187 -9.66797,5.507812 V 52.0625 h -8.4961 V 83 h 8.64258 z m 48.18672,17.841797 c 4.07227,0 7.38282,-1.787109 9.16993,-5.390625 h 0.0293 V 83 h 8.4961 V 39.347656 h -8.61328 v 16.992188 h -0.0293 C 429.89688,53 426.79141,51.417969 422.77774,51.417969 c -7.91016,0 -13.33008,6.591797 -13.33008,16.083984 0,9.697266 5.30274,16.142578 13.38867,16.142578 z m 2.22657,-7.03125 c -4.18946,0 -6.91407,-3.310547 -6.91407,-9.111328 0,-5.800781 2.72461,-9.111328 6.91407,-9.111328 4.36523,0 7.26562,3.603516 7.26562,9.111328 0,5.537109 -2.90039,9.111328 -7.26562,9.111328 z m 34.11288,7.089844 c 7.5,0 13.47656,-4.277344 14.61914,-10.429688 h -7.88086 c -0.79101,2.402344 -3.10547,3.955079 -6.47461,3.955079 -4.54101,0 -7.17773,-2.958985 -7.32422,-7.529297 h 22.00196 v -2.314453 c 0,-9.433594 -6.12305,-16.025391 -15.23438,-16.025391 -8.87695,0 -15.17578,6.767578 -15.17578,16.201172 0,9.404297 6.09375,16.142578 15.46875,16.142578 z m -7.00195,-19.511719 c 0.46875,-3.867187 3.01758,-6.269531 6.88476,-6.269531 3.89649,0 6.47461,2.402344 6.91407,6.269531 z m 37.83359,19.570313 c 8.08593,0 13.71093,-4.042969 13.71093,-10.22461 0,-4.541015 -2.87109,-7.236328 -9.11132,-8.466797 l -5.85938,-1.142578 c -2.37305,-0.498047 -3.75,-1.523437 -3.75,-3.105468 0,-1.845704 1.78711,-3.28125 4.74609,-3.28125 3.04688,0 5.15625,1.845703 5.21485,4.335937 h 7.99804 c -0.17578,-6.445312 -5.44921,-10.458984 -13.44726,-10.458984 -8.05664,0 -13.125,3.867187 -13.125,9.726562 0,4.804688 3.19336,7.851563 9.19922,9.023438 l 5.41992,1.054687 c 2.51953,0.498047 4.01367,1.464844 4.01367,3.105469 0,1.904297 -1.96289,3.251953 -5.15625,3.251953 -3.36914,0 -5.36133,-1.611328 -5.68359,-4.306641 h -8.4961 c 0.52735,6.650391 6.29883,10.488282 14.32618,10.488282 z M 506.74725,83 h 8.64258 V 73.185547 L 517.88007,70.431641 526.99139,83 h 10.10743 L 524.35468,65.480469 536.45428,52.0625 h -10.13671 l -10.83985,11.835937 h -0.0879 V 39.347656 h -8.64258 z"
       id="text14"
       style="font-weight:700;font-size:60px;font-family:'Inter Display', Inter, Arial, Helvetica, sans-serif;letter-spacing:-1.6;fill:#1F2933"
       aria-label="viridian desk" />
    <path
       d="m 213.5127,124.31641 c 3.03222,0 5.32617,-1.5293 5.32617,-4.11328 0,-2.00391 -1.21289,-3.22999 -3.87598,-3.8628 l -2.24121,-0.52734 c -1.34473,-0.31641 -2.16211,-0.93604 -2.16211,-1.99072 0,-1.18653 1.09424,-2.13575 2.80811,-2.13575 1.79296,0 2.93994,1.08106 2.9663,2.55762 h 2.18848 c -0.0791,-2.76855 -2.25439,-4.48242 -5.15478,-4.48242 -2.9795,0 -5.04932,1.6875 -5.04932,4.06055 0,2.03027 1.34473,3.34863 3.92871,3.95507 l 2.24121,0.52735 c 1.23926,0.29004 2.09619,0.89648 2.09619,1.95117 0,1.23926 -1.1997,2.13574 -3.12451,2.13574 -1.95117,0 -3.08496,-0.89648 -3.24316,-2.55762 h -2.21485 c 0.18457,3.03223 2.53125,4.48243 5.51075,4.48243 z m 13.81093,0 c 3.03223,0 5.40528,-1.81934 5.93262,-4.48243 h -2.24121 c -0.42188,1.4502 -1.71387,2.45215 -3.69141,2.45215 -2.63672,0 -4.13965,-1.87207 -4.24511,-4.60107 h 10.41504 v -0.61963 c 0,-4.32422 -2.45215,-7.30371 -6.32813,-7.30371 -3.69141,0 -6.30176,3.07178 -6.30176,7.30371 0,4.19238 2.37305,7.25098 6.45996,7.25098 z m -4.21875,-8.55616 c 0.23731,-2.45214 1.77979,-3.99462 4.06055,-3.99462 2.29395,0 3.84961,1.54248 4.08691,3.99462 z m 18.79434,8.55616 c 3.13769,0 5.48437,-2.10938 5.8667,-4.85157 h -2.30713 c -0.43506,1.70069 -1.47656,2.82129 -3.55957,2.82129 -2.63672,0 -4.19238,-2.05664 -4.19238,-5.2207 0,-3.19043 1.56884,-5.27344 4.19238,-5.27344 2.05664,0 3.26953,1.18653 3.59912,2.82129 h 2.26758 c -0.38233,-2.8081 -2.70264,-4.85156 -5.8667,-4.85156 -3.86279,0 -6.45996,3.03223 -6.45996,7.30371 0,4.24512 2.59717,7.25098 6.45996,7.25098 z m 13.58681,-0.0527 c 1.76661,0 3.17725,-0.7251 4.13965,-2.30713 V 124 h 2.18848 v -13.92187 h -2.24121 v 8.14746 c 0,2.8081 -1.63477,3.98144 -3.66504,3.98144 -2.08301,0 -3.2959,-1.22607 -3.2959,-3.63867 v -8.49023 h -2.24121 v 8.64843 c 0,3.70459 2.30713,5.53711 5.11523,5.53711 z M 265.23643,124 h 2.24121 v -8.56934 c 0,-2.35986 1.33154,-3.40136 2.87402,-3.40136 0.646,0 1.18653,0.10547 1.3711,0.1582 v -2.24121 c -0.18457,-0.0264 -0.54053,-0.0791 -0.94922,-0.0791 -1.74024,0 -2.83448,0.9624 -3.34864,2.39941 h -0.0527 v -2.18847 h -2.13574 z m 14.28554,0.31641 c 3.03223,0 5.40528,-1.81934 5.93262,-4.48243 h -2.24121 c -0.42188,1.4502 -1.71387,2.45215 -3.69141,2.45215 -2.63672,0 -4.13965,-1.87207 -4.24511,-4.60107 h 10.41503 v -0.61963 c 0,-4.32422 -2.45214,-7.30371 -6.32812,-7.30371 -3.69141,0 -6.30176,3.07178 -6.30176,7.30371 0,4.19238 2.37305,7.25098 6.45996,7.25098 z m -4.21875,-8.55616 c 0.23731,-2.45214 1.77979,-3.99462 4.06055,-3.99462 2.29394,0 3.84961,1.54248 4.08691,3.99462 z M 298.2581,124 h 2.29395 l 1.87207,-6.32812 c 0.44824,-1.5293 0.85693,-3.1377 1.26562,-4.70655 0.40869,1.56885 0.81739,3.17725 1.25244,4.70655 L 306.7747,124 h 2.34668 l 4.32422,-13.92187 h -2.34668 l -1.79297,6.11718 c -0.48779,1.67432 -0.93603,3.42774 -1.39746,5.12842 -0.46142,-1.70068 -0.89648,-3.4541 -1.37109,-5.12842 l -1.74024,-6.11718 h -2.21484 l -1.7666,6.11718 c -0.48779,1.6875 -0.93604,3.48047 -1.39746,5.19434 -0.46143,-1.71387 -0.89649,-3.50684 -1.38428,-5.19434 l -1.75342,-6.11718 h -2.34668 z m 22.6044,0.31641 c 3.8628,0 6.45996,-3.00586 6.45996,-7.25098 0,-4.27148 -2.59716,-7.30371 -6.45996,-7.30371 -3.86279,0 -6.45996,3.03223 -6.45996,7.30371 0,4.24512 2.59717,7.25098 6.45996,7.25098 z m 0,-2.03028 c -2.63672,0 -4.19238,-2.05664 -4.19238,-5.2207 0,-3.19043 1.56885,-5.27344 4.19238,-5.27344 2.62354,0 4.19239,2.09619 4.19239,5.27344 0,3.15088 -1.55567,5.2207 -4.19239,5.2207 z M 330.03281,124 h 2.24121 v -8.56934 c 0,-2.35986 1.33155,-3.40136 2.87403,-3.40136 0.64599,0 1.18652,0.10547 1.37109,0.1582 v -2.24121 c -0.18457,-0.0264 -0.54053,-0.0791 -0.94922,-0.0791 -1.74023,0 -2.83447,0.9624 -3.34863,2.39941 h -0.0527 v -2.18847 h -2.13575 z m 8.5375,0 h 2.24121 v -5.1416 l 1.55567,-1.41065 5.44482,6.55225 h 2.84766 l -6.57862,-7.96289 6.13038,-5.95898 h -2.90039 l -6.47315,6.2622 h -0.0264 v -11.98388 h -2.24121 z m 18.64933,0.31641 c 3.03222,0 5.32617,-1.5293 5.32617,-4.11328 0,-2.00391 -1.21289,-3.22999 -3.87598,-3.8628 l -2.24121,-0.52734 c -1.34473,-0.31641 -2.16211,-0.93604 -2.16211,-1.99072 0,-1.18653 1.09424,-2.13575 2.80811,-2.13575 1.79296,0 2.93994,1.08106 2.9663,2.55762 h 2.18848 c -0.0791,-2.76855 -2.25439,-4.48242 -5.15478,-4.48242 -2.9795,0 -5.04932,1.6875 -5.04932,4.06055 0,2.03027 1.34473,3.34863 3.92871,3.95507 l 2.24121,0.52735 c 1.23926,0.29004 2.09619,0.89648 2.09619,1.95117 0,1.23926 -1.1997,2.13574 -3.12451,2.13574 -1.95117,0 -3.08496,-0.89648 -3.24316,-2.55762 h -2.21485 c 0.18457,3.03223 2.53125,4.48243 5.51075,4.48243 z m 8.06288,5.19433 h 2.24121 v -7.62011 h 0.0264 c 1.00196,1.60839 2.54444,2.37304 4.35059,2.37304 3.62549,0 6.03809,-2.93994 6.03809,-7.22461 0,-4.29785 -2.4126,-7.22461 -6.03809,-7.22461 -1.80615,0 -3.50684,0.76465 -4.40332,2.32032 h -0.0264 v -2.05664 h -2.18847 z m 6.27539,-7.26416 c -2.58399,0 -4.21875,-2.05664 -4.21875,-5.20752 0,-3.15088 1.63476,-5.2207 4.21875,-5.2207 2.41259,0 4.11328,1.80615 4.11328,5.2207 0,3.41455 -1.70069,5.20752 -4.11328,5.20752 z m 13.46817,1.96436 c 2.53125,0 3.62549,-1.18653 4.13965,-2.18848 h 0.0527 V 124 h 2.21484 v -9.59766 c 0,-2.75537 -2.05664,-4.58789 -5.2998,-4.58789 -3.2959,0 -5.55029,1.88526 -5.66895,4.42969 h 2.28077 c 0.10546,-1.38428 1.45019,-2.45215 3.38818,-2.45215 1.95117,0 3.08496,1.09424 3.08496,2.61035 v 0.13184 c 0,1.06787 -0.85693,0.9624 -3.50684,1.31836 -2.79492,0.36914 -5.53711,0.94922 -5.53711,4.13965 0,2.78174 2.08301,4.21875 4.85157,4.21875 z m 0.3164,-2.00391 c -1.77978,0 -2.87402,-0.77783 -2.87402,-2.08301 0,-1.56884 1.5293,-2.12256 3.1377,-2.34668 1.59521,-0.22412 3.26953,-0.47461 3.6123,-0.79101 v 1.74023 c 0,1.81934 -1.13379,3.48047 -3.87598,3.48047 z m 15.26113,2.10938 c 3.13769,0 5.48437,-2.10938 5.8667,-4.85157 h -2.30713 c -0.43506,1.70069 -1.47657,2.82129 -3.55957,2.82129 -2.63672,0 -4.19239,-2.05664 -4.19239,-5.2207 0,-3.19043 1.56885,-5.27344 4.19239,-5.27344 2.05664,0 3.26953,1.18653 3.59912,2.82129 h 2.26758 c -0.38233,-2.8081 -2.70264,-4.85156 -5.8667,-4.85156 -3.8628,0 -6.45996,3.03223 -6.45996,7.30371 0,4.24512 2.59716,7.25098 6.45996,7.25098 z m 14.21963,0 c 3.03223,0 5.40528,-1.81934 5.93262,-4.48243 h -2.24121 c -0.42188,1.4502 -1.71387,2.45215 -3.69141,2.45215 -2.63672,0 -4.13965,-1.87207 -4.24512,-4.60107 h 10.41504 v -0.61963 c 0,-4.32422 -2.45214,-7.30371 -6.32812,-7.30371 -3.69141,0 -6.30176,3.07178 -6.30176,7.30371 0,4.19238 2.37305,7.25098 6.45996,7.25098 z m -4.21875,-8.55616 c 0.23731,-2.45214 1.77979,-3.99462 4.06055,-3.99462 2.29394,0 3.84961,1.54248 4.08691,3.99462 z m 24.14141,8.45069 c 2.53125,0 3.62548,-1.18653 4.13964,-2.18848 h 0.0527 V 124 h 2.21484 v -9.59766 c 0,-2.75537 -2.05664,-4.58789 -5.2998,-4.58789 -3.2959,0 -5.5503,1.88526 -5.66895,4.42969 h 2.28076 c 0.10547,-1.38428 1.4502,-2.45215 3.38819,-2.45215 1.95117,0 3.08496,1.09424 3.08496,2.61035 v 0.13184 c 0,1.06787 -0.85694,0.9624 -3.50684,1.31836 -2.79492,0.36914 -5.53711,0.94922 -5.53711,4.13965 0,2.78174 2.08301,4.21875 4.85157,4.21875 z m 0.3164,-2.00391 c -1.77978,0 -2.87402,-0.77783 -2.87402,-2.08301 0,-1.56884 1.5293,-2.12256 3.13769,-2.34668 1.59522,-0.22412 3.26953,-0.47461 3.61231,-0.79101 v 1.74023 c 0,1.81934 -1.13379,3.48047 -3.87598,3.48047 z m 15.26114,2.10938 c 3.1377,0 5.48438,-2.10938 5.8667,-4.85157 h -2.30713 c -0.43506,1.70069 -1.47656,2.82129 -3.55957,2.82129 -2.63672,0 -4.19238,-2.05664 -4.19238,-5.2207 0,-3.19043 1.56885,-5.27344 4.19238,-5.27344 2.05664,0 3.26953,1.18653 3.59912,2.82129 h 2.26758 c -0.38232,-2.8081 -2.70264,-4.85156 -5.8667,-4.85156 -3.86279,0 -6.45996,3.03223 -6.45996,7.30371 0,4.24512 2.59717,7.25098 6.45996,7.25098 z m 14.21962,0 c 3.1377,0 5.48438,-2.10938 5.8667,-4.85157 h -2.30713 c -0.43506,1.70069 -1.47656,2.82129 -3.55957,2.82129 -2.63672,0 -4.19238,-2.05664 -4.19238,-5.2207 0,-3.19043 1.56885,-5.27344 4.19238,-5.27344 2.05664,0 3.26953,1.18653 3.59912,2.82129 h 2.26758 c -0.38232,-2.8081 -2.70264,-4.85156 -5.8667,-4.85156 -3.86279,0 -6.45996,3.03223 -6.45996,7.30371 0,4.24512 2.59717,7.25098 6.45996,7.25098 z m 14.21964,0 c 3.03222,0 5.40527,-1.81934 5.93261,-4.48243 h -2.24121 c -0.42187,1.4502 -1.71387,2.45215 -3.6914,2.45215 -2.63672,0 -4.13965,-1.87207 -4.24512,-4.60107 h 10.41504 v -0.61963 c 0,-4.32422 -2.45215,-7.30371 -6.32813,-7.30371 -3.6914,0 -6.30176,3.07178 -6.30176,7.30371 0,4.19238 2.37305,7.25098 6.45997,7.25098 z m -4.21875,-8.55616 c 0.2373,-2.45214 1.77978,-3.99462 4.06054,-3.99462 2.29395,0 3.84961,1.54248 4.08692,3.99462 z m 17.89785,8.55616 c 3.03223,0 5.32617,-1.5293 5.32617,-4.11328 0,-2.00391 -1.21289,-3.22999 -3.87597,-3.8628 l -2.24121,-0.52734 c -1.34473,-0.31641 -2.16211,-0.93604 -2.16211,-1.99072 0,-1.18653 1.09424,-2.13575 2.8081,-2.13575 1.79297,0 2.93994,1.08106 2.96631,2.55762 h 2.18848 c -0.0791,-2.76855 -2.2544,-4.48242 -5.15479,-4.48242 -2.97949,0 -5.04931,1.6875 -5.04931,4.06055 0,2.03027 1.34472,3.34863 3.92871,3.95507 l 2.24121,0.52735 c 1.23926,0.29004 2.09619,0.89648 2.09619,1.95117 0,1.23926 -1.19971,2.13574 -3.12451,2.13574 -1.95117,0 -3.08496,-0.89648 -3.24317,-2.55762 h -2.21484 c 0.18457,3.03223 2.53125,4.48243 5.51074,4.48243 z m 12.91446,0 c 3.03223,0 5.32617,-1.5293 5.32617,-4.11328 0,-2.00391 -1.21289,-3.22999 -3.87597,-3.8628 l -2.24121,-0.52734 c -1.34473,-0.31641 -2.16211,-0.93604 -2.16211,-1.99072 0,-1.18653 1.09424,-2.13575 2.8081,-2.13575 1.79297,0 2.93994,1.08106 2.96631,2.55762 h 2.18848 c -0.0791,-2.76855 -2.2544,-4.48242 -5.15479,-4.48242 -2.97949,0 -5.04931,1.6875 -5.04931,4.06055 0,2.03027 1.34472,3.34863 3.92871,3.95507 l 2.24121,0.52735 c 1.23926,0.29004 2.09619,0.89648 2.09619,1.95117 0,1.23926 -1.19971,2.13574 -3.12451,2.13574 -1.95117,0 -3.08496,-0.89648 -3.24317,-2.55762 h -2.21484 c 0.18457,3.03223 2.53125,4.48243 5.51074,4.48243 z"
       id="text15"
       style="font-size:27px;font-family:'Inter Display', Inter, Arial, Helvetica, sans-serif;letter-spacing:0.1;fill:#5E6A72"
       aria-label="secure workspace access" />
  </g>
</svg>
